<svg id="Group_27" data-name="Group 27" xmlns="http://www.w3.org/2000/svg" width="616.059" height="372.642" viewBox="0 0 616.059 372.642">
  <g id="Group_2" data-name="Group 2">
    <path id="Path_1" data-name="Path 1" d="M401.2,125.578c-64.972,20.744-270.775-81.546-254.669,58.176,2.518,20.776,15.9,50.121,4.6,69.517-8.189,14.526-23.2,23.037-37.7,28.684-37.873,15.4-51.975,44.294-42.383,85.537,25.655,111.134,165.312,84.778,238.628,51.826,52.139-24.523,113.632-28.734,167.621-7.99,42.3,16.891,68.666,52.326,118.309,41.945,44.025-8.835,50.669-50.4,37.813-89.093-7.3-23.938-12.547-34.053,1.939-57.16,12.208-22.949,33.695-40.338,35.348-67.223.362-29.119-13.02-58.463-38.914-69.492-21.187-9.023-40.391-5.38-61.35-10.928-46.62-13.1-76.579-85.535-134.413-60.624-14.421,6.806-22.534,22.492-38.246,27.061" transform="translate(-68.14 -82.503)" fill="#fff" opacity="0.94"/>
    <g id="Group_1" data-name="Group 1" transform="translate(4.778)" opacity="0.3">
      <path id="Path_2" data-name="Path 2" d="M254.58,104.094" transform="translate(50.147 -75.562)" fill="none" stroke="#a2dbf1" stroke-miterlimit="10" stroke-width="1.1"/>
      <path id="Path_3" data-name="Path 3" d="M91.643,185.907" transform="translate(-57.404 -21.56)" fill="none" stroke="#a2dbf1" stroke-miterlimit="10" stroke-width="2.2"/>
      <path id="Path_4" data-name="Path 4" d="M422.33,229.769" transform="translate(160.874 7.393)" fill="none" stroke="#a2dbf1" stroke-miterlimit="10" stroke-width="2.2"/>
      <path id="Path_5" data-name="Path 5" d="M236.018,98.594" transform="translate(37.894 -79.193)" fill="none" stroke="#a2dbf1" stroke-miterlimit="10" stroke-width="2.2"/>
      <path id="Path_6" data-name="Path 6" d="M433.33,210.657" transform="translate(168.135 -5.223)" fill="none" stroke="#a2dbf1" stroke-miterlimit="10" stroke-width="2.86"/>
      <path id="Path_7" data-name="Path 7" d="M73.081,202.407" transform="translate(-69.656 -10.668)" fill="none" stroke="#a2dbf1" stroke-miterlimit="10" stroke-width="2.86"/>
      <path id="Path_8" data-name="Path 8" d="M378.33,116.469" transform="translate(131.831 -67.394)" fill="none" stroke="#a2dbf1" stroke-miterlimit="10" stroke-width="2.86"/>
      <path id="Path_9" data-name="Path 9" d="M251.83,86.907" transform="translate(48.331 -86.907)" fill="none" stroke="#a2dbf1" stroke-miterlimit="10" stroke-width="3.3"/>
      <path id="Path_10" data-name="Path 10" d="M439.243,226.606" transform="translate(172.038 5.305)" fill="none" stroke="#a2dbf1" stroke-miterlimit="10" stroke-width="1.65"/>
      <path id="Path_11" data-name="Path 11" d="M71.155,182.469" transform="translate(-70.928 -23.829)" fill="none" stroke="#a2dbf1" stroke-miterlimit="10" stroke-width="1.65"/>
      <path id="Path_12" data-name="Path 12" d="M395.518,127.469" transform="translate(143.176 -60.133)" fill="none" stroke="#a2dbf1" stroke-miterlimit="10" stroke-width="1.65"/>
      <path id="Path_13" data-name="Path 13" d="M394.143,113.719" transform="translate(142.269 -69.209)" fill="none" stroke="#a2dbf1" stroke-miterlimit="10" stroke-width="1.1"/>
      <path id="Path_14" data-name="Path 14" d="M115.568,101.481" transform="translate(-41.612 -77.287)" fill="none" stroke="#a2dbf1" stroke-miterlimit="10" stroke-width="2.2"/>
      <path id="Path_15" data-name="Path 15" d="M428.518,291.1" transform="translate(164.959 47.872)" fill="none" stroke="#a2dbf1" stroke-miterlimit="10" stroke-width="2.2"/>
      <path id="Path_16" data-name="Path 16" d="M71.018,295.907" transform="translate(-71.018 51.049)" fill="none" stroke="#a2dbf1" stroke-miterlimit="10" stroke-width="2.2"/>
      <path id="Path_17" data-name="Path 17" d="M132.068,95.981" transform="translate(-30.72 -80.917)" fill="none" stroke="#a2dbf1" stroke-miterlimit="10" stroke-width="1.1"/>
      <path id="Path_18" data-name="Path 18" d="M429.2,271.845" transform="translate(165.412 35.166)" fill="none" stroke="#a2dbf1" stroke-miterlimit="10" stroke-width="1.1"/>
      <path id="Path_19" data-name="Path 19" d="M87.518,305.532" transform="translate(-60.127 57.402)" fill="none" stroke="#a2dbf1" stroke-miterlimit="10" stroke-width="1.1"/>
    </g>
  </g>
  <g id="Group_26" data-name="Group 26" transform="translate(68.463 63.684)">
    <g id="Group_24" data-name="Group 24" transform="translate(0 23.932)">
      <g id="Group_7" data-name="Group 7" transform="translate(0 44.546)">
        <g id="Group_4" data-name="Group 4">
          <path id="Path_20" data-name="Path 20" d="M198.165,244.169c-19.172,7.459-15.522-9.13-25.563-21-9.13-10.958-11.871-5.478-23.739-5.478-36.522-2.739-20.089-20.087-30.132-40.174" transform="translate(-103.21 -159.258)" fill="none" stroke="#222221" stroke-miterlimit="10" stroke-width="0.825"/>
          <g id="Group_3" data-name="Group 3">
            <path id="Path_21" data-name="Path 21" d="M127.253,171.744c-2.739,3.652-4.869,5.022-8.523,6.848" transform="translate(-103.21 -163.07)" fill="none" stroke="#222221" stroke-miterlimit="10" stroke-width="0.66"/>
            <path id="Path_22" data-name="Path 22" d="M118.182,166.519c-.043,3.958.911,11.87.911,17.348" transform="translate(-103.573 -166.519)" fill="none" stroke="#222221" stroke-miterlimit="10" stroke-width="0.66"/>
            <path id="Path_23" data-name="Path 23" d="M112.131,168.719c3.65,4.565,7.3,9.13,11.868,11.87" transform="translate(-107.566 -165.067)" fill="none" stroke="#222221" stroke-miterlimit="10" stroke-width="0.66"/>
            <path id="Path_24" data-name="Path 24" d="M109.381,173.668a14.376,14.376,0,0,0,15.52,3.654" transform="translate(-109.381 -161.8)" fill="none" stroke="#222221" stroke-miterlimit="10" stroke-width="0.66"/>
          </g>
        </g>
        <g id="Group_6" data-name="Group 6" transform="translate(370.695 18.261)">
          <path id="Path_25" data-name="Path 25" d="M332.681,251.693c0-16.433,8.217-15.52,21-16.433,17.348-.913,12.783-.913,18.261-15.523,9.13-22.826,41.087-3.651,42-32.868" transform="translate(-332.681 -171.347)" fill="none" stroke="#222221" stroke-miterlimit="10" stroke-width="0.825"/>
          <g id="Group_5" data-name="Group 5" transform="translate(71.216)">
            <path id="Path_26" data-name="Path 26" d="M375.58,181.369a18.087,18.087,0,0,0,10.045,10.042" transform="translate(-375.58 -174.978)" fill="none" stroke="#222221" stroke-miterlimit="10" stroke-width="0.66"/>
            <path id="Path_27" data-name="Path 27" d="M380.53,177.519v13.7" transform="translate(-372.313 -177.519)" fill="none" stroke="#222221" stroke-miterlimit="10" stroke-width="0.66"/>
            <path id="Path_28" data-name="Path 28" d="M389.66,178.619a25.612,25.612,0,0,1-9.13,12.783" transform="translate(-372.313 -176.793)" fill="none" stroke="#222221" stroke-miterlimit="10" stroke-width="0.66"/>
            <path id="Path_29" data-name="Path 29" d="M394.6,182.469c-2.741,4.565-7.306,7.3-11.871,9.13" transform="translate(-370.86 -174.252)" fill="none" stroke="#222221" stroke-miterlimit="10" stroke-width="0.66"/>
          </g>
        </g>
      </g>
      <g id="Group_23" data-name="Group 23" transform="translate(57.048)">
        <g id="Group_13" data-name="Group 13" transform="translate(0 184.638)">
          <g id="Group_11" data-name="Group 11" transform="translate(1.836)">
            <path id="Path_30" data-name="Path 30" d="M492.731,308.64c0,4.789-35.864,6.18-39.741,6.18h-268.4c-3.871,0-39.742-1.391-39.742-6.18l32.728-49.059c0-4.791,3.143-8.674,7.014-8.674h268.4c3.876,0,7.014,3.883,7.014,8.674Z" transform="translate(-144.852 -250.908)" fill="#b3b3b3"/>
            <g id="Group_10" data-name="Group 10" transform="translate(17.811 17.587)">
              <g id="Group_8" data-name="Group 8">
                <path id="Path_31" data-name="Path 31" d="M243.809,290.719H174.83L186.9,261.5h62.389Z" transform="translate(-142.875 -261.502)" fill="#3e3e3d"/>
                <path id="Path_32" data-name="Path 32" d="M285.058,290.719h68.979L341.964,261.5H279.578Z" transform="translate(-73.734 -261.502)" fill="#3e3e3d"/>
                <path id="Path_33" data-name="Path 33" d="M334.579,290.719h24.29L338.994,261.5H320.67Z" transform="translate(-46.61 -261.502)" fill="#3e3e3d"/>
                <path id="Path_34" data-name="Path 34" d="M179.873,290.719H155.581L175.458,261.5h18.321Z" transform="translate(-155.581 -261.502)" fill="#3e3e3d"/>
                <path id="Path_35" data-name="Path 35" d="M318.292,290.719H220.036l5.478-29.217h87.3Z" transform="translate(-113.036 -261.502)" fill="#3e3e3d"/>
              </g>
              <g id="Group_9" data-name="Group 9" transform="translate(2.74 5.332)">
                <rect id="Rectangle_2" data-name="Rectangle 2" width="300.271" height="4.473" transform="translate(3.255)" fill="#b3b3b3"/>
                <rect id="Rectangle_3" data-name="Rectangle 3" width="306.782" height="4.473" transform="translate(0 10.956)" fill="#b3b3b3"/>
              </g>
            </g>
          </g>
          <g id="Group_12" data-name="Group 12" transform="translate(0 56.071)">
            <path id="Path_36" data-name="Path 36" d="M495.3,297.707c0,3.873-.8,7.012-4.673,7.012H148.419c-3.875,0-4.673-3.139-4.673-7.012v-6.013c0-3.873.8-7.01,4.673-7.01H490.625c3.87,0,4.673,3.138,4.673,7.01Z" transform="translate(-143.746 -284.684)" fill="#3e3e3d"/>
            <path id="Path_37" data-name="Path 37" d="M339.275,292.271a3.654,3.654,0,0,1-3.652,3.654H214.645a3.653,3.653,0,0,1-3.652-3.654h0a3.651,3.651,0,0,1,3.652-3.652H335.623a3.652,3.652,0,0,1,3.652,3.652Z" transform="translate(-99.358 -282.087)" fill="#6f6f6f"/>
          </g>
        </g>
        <g id="Group_22" data-name="Group 22" transform="translate(31.058)">
          <rect id="Rectangle_4" data-name="Rectangle 4" width="289.435" height="193.704" rx="4.226" fill="#3e3e3d"/>
          <path id="Path_38" data-name="Path 38" d="M249.631,143.8" transform="translate(-104.912 -136.968)" fill="none" stroke="#fff" stroke-miterlimit="10" stroke-width="0.704"/>
          <g id="Group_21" data-name="Group 21" transform="translate(20.258 14.848)">
            <path id="Rectangle_5" data-name="Rectangle 5" d="M3.634,0h241.65a3.634,3.634,0,0,1,3.634,3.634V162.945a3.635,3.635,0,0,1-3.635,3.635H3.632A3.632,3.632,0,0,1,0,162.948V3.634A3.634,3.634,0,0,1,3.634,0Z" fill="#fff"/>
            <g id="Group_20" data-name="Group 20" transform="translate(42.287 62.629)">
              <g id="Group_16" data-name="Group 16" transform="translate(25.277)">
                <g id="Group_14" data-name="Group 14">
                  <line id="Line_1" data-name="Line 1" x1="20.662" y2="20.658" fill="none" stroke="#425973" stroke-linecap="round" stroke-linejoin="round" stroke-width="3.3"/>
                  <line id="Line_2" data-name="Line 2" x1="20.66" y1="20.66" transform="translate(0.002 0.001)" fill="none" stroke="#425973" stroke-linecap="round" stroke-linejoin="round" stroke-width="3.3"/>
                </g>
                <g id="Group_15" data-name="Group 15" transform="translate(93.13)">
                  <line id="Line_3" data-name="Line 3" x1="20.662" y2="20.658" fill="none" stroke="#425973" stroke-linecap="round" stroke-linejoin="round" stroke-width="3.3"/>
                  <line id="Line_4" data-name="Line 4" x1="20.658" y1="20.66" transform="translate(0.003 0.001)" fill="none" stroke="#425973" stroke-linecap="round" stroke-linejoin="round" stroke-width="3.3"/>
                </g>
              </g>
              <g id="Group_18" data-name="Group 18" transform="translate(20.263 45.568)">
                <g id="Group_17" data-name="Group 17" transform="translate(90.984 0.023)">
                  <path id="Path_39" data-name="Path 39" d="M285.692,213.819V234.21a7.3,7.3,0,0,1-7.3,7.3h-3.939a7.3,7.3,0,0,1-7.3-7.3V213.819" transform="translate(-267.144 -213.819)" fill="#dd9ab2"/>
                  <path id="Path_40" data-name="Path 40" d="M272.73,214.46V238.2" transform="translate(-263.457 -213.396)" fill="none" stroke="#d6819f" stroke-miterlimit="10" stroke-width="3.86"/>
                </g>
                <line id="Line_5" data-name="Line 5" x2="123.82" fill="none" stroke="#425973" stroke-linecap="round" stroke-linejoin="round" stroke-width="2.75"/>
              </g>
              <g id="Group_19" data-name="Group 19" transform="translate(0 33.417)">
                <path id="Path_41" data-name="Path 41" d="M200.131,206.486" transform="translate(-200.131 -206.486)" fill="none" stroke="#e9c2d0" stroke-miterlimit="10" stroke-width="2.2"/>
                <path id="Path_42" data-name="Path 42" d="M299.131,206.486" transform="translate(-134.784 -206.486)" fill="none" stroke="#e9c2d0" stroke-miterlimit="10" stroke-width="2.2"/>
              </g>
            </g>
          </g>
        </g>
      </g>
    </g>
    <g id="Group_25" data-name="Group 25" transform="translate(335.084)">
      <path id="Path_43" data-name="Path 43" d="M311.23,125.269V185.53" transform="translate(-311.23 -125.269)" fill="none" stroke="#e88d07" stroke-miterlimit="10" stroke-width="1.1"/>
      <path id="Path_44" data-name="Path 44" d="M311.23,171.469" transform="translate(-311.23 -94.774)" fill="none" stroke="#e88d07" stroke-miterlimit="10" stroke-width="1.65"/>
    </g>
  </g>
</svg>
